<mxfile host="app.diagrams.net" modified="2024-02-15T07:58:25.706Z" agent="Mozilla/5.0 (Windows NT 10.0; Win64; x64) AppleWebKit/537.36 (KHTML, like Gecko) Chrome/121.0.0.0 Safari/537.36" etag="KfNte6m1reAIpWyZJj-d" version="23.1.4" type="device">
  <diagram id="C5RBs43oDa-KdzZeNtuy" name="Page-1">
    <mxGraphModel dx="2150" dy="942" grid="1" gridSize="10" guides="1" tooltips="1" connect="1" arrows="1" fold="1" page="1" pageScale="1" pageWidth="827" pageHeight="1169" math="0" shadow="0">
      <root>
        <mxCell id="WIyWlLk6GJQsqaUBKTNV-0" />
        <mxCell id="WIyWlLk6GJQsqaUBKTNV-1" parent="WIyWlLk6GJQsqaUBKTNV-0" />
        <mxCell id="fUW-c-WArz3DxkQW3yNd-0" value="TravelPackage" style="swimlane;fontStyle=2;align=center;verticalAlign=top;childLayout=stackLayout;horizontal=1;startSize=26;horizontalStack=0;resizeParent=1;resizeLast=0;collapsible=1;marginBottom=0;rounded=0;shadow=0;strokeWidth=1;" parent="WIyWlLk6GJQsqaUBKTNV-1" vertex="1">
          <mxGeometry x="310" y="20" width="300" height="240" as="geometry">
            <mxRectangle x="230" y="140" width="160" height="26" as="alternateBounds" />
          </mxGeometry>
        </mxCell>
        <mxCell id="fUW-c-WArz3DxkQW3yNd-1" value="name: String &#xa;passengerCapacity: int&#xa;destinations: List&lt;Destination&gt;&#xa;passengers: List&lt;Passenger&gt;" style="text;align=left;verticalAlign=top;spacingLeft=4;spacingRight=4;overflow=hidden;rotatable=0;points=[[0,0.5],[1,0.5]];portConstraint=eastwest;" parent="fUW-c-WArz3DxkQW3yNd-0" vertex="1">
          <mxGeometry y="26" width="300" height="74" as="geometry" />
        </mxCell>
        <mxCell id="fUW-c-WArz3DxkQW3yNd-2" value="" style="endArrow=none;html=1;rounded=0;" parent="fUW-c-WArz3DxkQW3yNd-0" edge="1">
          <mxGeometry width="50" height="50" relative="1" as="geometry">
            <mxPoint y="99" as="sourcePoint" />
            <mxPoint x="300" y="100" as="targetPoint" />
          </mxGeometry>
        </mxCell>
        <mxCell id="fUW-c-WArz3DxkQW3yNd-4" value="TravelPackage(name: String, passengerCapacity: int) &#xa;addDestination(destination: Destination): void &#xa;addPassenger(passenger: Passenger): boolean&#xa;printItinerary(): void &#xa;printPassengerList(): void        |&#xa;printPassengerDetails(passenger: Passenger): void &#xa;printAvailableActivities(): void &#xa;getPassengers(): List&lt;Passenger&gt;&#xa;getDestinations(): List&lt;Destination&gt;" style="text;align=left;verticalAlign=top;spacingLeft=4;spacingRight=4;overflow=hidden;rotatable=0;points=[[0,0.5],[1,0.5]];portConstraint=eastwest;rounded=0;shadow=0;html=0;" parent="fUW-c-WArz3DxkQW3yNd-0" vertex="1">
          <mxGeometry y="100" width="300" height="140" as="geometry" />
        </mxCell>
        <mxCell id="fUW-c-WArz3DxkQW3yNd-6" value="Destination" style="swimlane;fontStyle=2;align=center;verticalAlign=top;childLayout=stackLayout;horizontal=1;startSize=26;horizontalStack=0;resizeParent=1;resizeLast=0;collapsible=1;marginBottom=0;rounded=0;shadow=0;strokeWidth=1;" parent="WIyWlLk6GJQsqaUBKTNV-1" vertex="1">
          <mxGeometry x="497" y="340" width="290" height="220" as="geometry">
            <mxRectangle x="230" y="140" width="160" height="26" as="alternateBounds" />
          </mxGeometry>
        </mxCell>
        <mxCell id="fUW-c-WArz3DxkQW3yNd-7" value="name: String &#xa;activities: List&lt;Activity&gt;&#xa;passengers: List&lt;Passenger&gt;" style="text;align=left;verticalAlign=top;spacingLeft=4;spacingRight=4;overflow=hidden;rotatable=0;points=[[0,0.5],[1,0.5]];portConstraint=eastwest;" parent="fUW-c-WArz3DxkQW3yNd-6" vertex="1">
          <mxGeometry y="26" width="290" height="54" as="geometry" />
        </mxCell>
        <mxCell id="fUW-c-WArz3DxkQW3yNd-33" value="" style="endArrow=none;html=1;rounded=0;entryX=1;entryY=0.008;entryDx=0;entryDy=0;entryPerimeter=0;" parent="fUW-c-WArz3DxkQW3yNd-6" target="fUW-c-WArz3DxkQW3yNd-10" edge="1">
          <mxGeometry width="50" height="50" relative="1" as="geometry">
            <mxPoint y="80" as="sourcePoint" />
            <mxPoint x="310" y="80.5" as="targetPoint" />
          </mxGeometry>
        </mxCell>
        <mxCell id="fUW-c-WArz3DxkQW3yNd-10" value="Destination(name: String) &#xa;addActivity(activity: Activity): void &#xa;addPassenger(passenger: Passenger): void &#xa;getActivities(): List&lt;Activity&gt; &#xa;getName(): String &#xa;getPassengers(): List&lt;Passenger&gt;" style="text;align=left;verticalAlign=top;spacingLeft=4;spacingRight=4;overflow=hidden;rotatable=0;points=[[0,0.5],[1,0.5]];portConstraint=eastwest;rounded=0;shadow=0;html=0;" parent="fUW-c-WArz3DxkQW3yNd-6" vertex="1">
          <mxGeometry y="80" width="290" height="130" as="geometry" />
        </mxCell>
        <mxCell id="fUW-c-WArz3DxkQW3yNd-11" value="Activity" style="swimlane;fontStyle=2;align=center;verticalAlign=top;childLayout=stackLayout;horizontal=1;startSize=26;horizontalStack=0;resizeParent=1;resizeLast=0;collapsible=1;marginBottom=0;rounded=0;shadow=0;strokeWidth=1;" parent="WIyWlLk6GJQsqaUBKTNV-1" vertex="1">
          <mxGeometry x="640" y="20" width="510" height="240" as="geometry">
            <mxRectangle x="650" y="290" width="160" height="26" as="alternateBounds" />
          </mxGeometry>
        </mxCell>
        <mxCell id="fUW-c-WArz3DxkQW3yNd-12" value="" style="endArrow=none;html=1;rounded=0;" parent="fUW-c-WArz3DxkQW3yNd-11" target="fUW-c-WArz3DxkQW3yNd-13" edge="1">
          <mxGeometry width="50" height="50" relative="1" as="geometry">
            <mxPoint x="110" y="100" as="sourcePoint" />
            <mxPoint x="160" y="50" as="targetPoint" />
          </mxGeometry>
        </mxCell>
        <mxCell id="fUW-c-WArz3DxkQW3yNd-13" value="name: String &#xa;description: String&#xa;cost: double&#xa;destination: Destination " style="text;align=left;verticalAlign=top;spacingLeft=4;spacingRight=4;overflow=hidden;rotatable=0;points=[[0,0.5],[1,0.5]];portConstraint=eastwest;" parent="fUW-c-WArz3DxkQW3yNd-11" vertex="1">
          <mxGeometry y="26" width="510" height="74" as="geometry" />
        </mxCell>
        <mxCell id="fUW-c-WArz3DxkQW3yNd-14" value="" style="endArrow=none;html=1;rounded=0;entryX=0.998;entryY=0.846;entryDx=0;entryDy=0;entryPerimeter=0;" parent="fUW-c-WArz3DxkQW3yNd-11" target="fUW-c-WArz3DxkQW3yNd-13" edge="1">
          <mxGeometry width="50" height="50" relative="1" as="geometry">
            <mxPoint y="89.5" as="sourcePoint" />
            <mxPoint x="290" y="89.5" as="targetPoint" />
          </mxGeometry>
        </mxCell>
        <mxCell id="fUW-c-WArz3DxkQW3yNd-17" value="Activity(name: String, description: String, cost: double, capacity: int, destination: Destination) &#xa;hasSpace(): boolean &#xa;signUp(passenger: Passenger): boolean &#xa;getCost(): double &#xa;getName(): String &#xa;getDescription(): String &#xa;getDestination(): Destination &#xa;getCapacity(): int  &#xa;" style="text;align=left;verticalAlign=top;spacingLeft=4;spacingRight=4;overflow=hidden;rotatable=0;points=[[0,0.5],[1,0.5]];portConstraint=eastwest;rounded=0;shadow=0;html=0;" parent="fUW-c-WArz3DxkQW3yNd-11" vertex="1">
          <mxGeometry y="100" width="510" height="130" as="geometry" />
        </mxCell>
        <mxCell id="fUW-c-WArz3DxkQW3yNd-18" value="Passenger" style="swimlane;fontStyle=2;align=center;verticalAlign=top;childLayout=stackLayout;horizontal=1;startSize=26;horizontalStack=0;resizeParent=1;resizeLast=0;collapsible=1;marginBottom=0;rounded=0;shadow=0;strokeWidth=1;" parent="WIyWlLk6GJQsqaUBKTNV-1" vertex="1">
          <mxGeometry x="457" y="640" width="370" height="220" as="geometry">
            <mxRectangle x="230" y="140" width="160" height="26" as="alternateBounds" />
          </mxGeometry>
        </mxCell>
        <mxCell id="fUW-c-WArz3DxkQW3yNd-19" value="name: String &#xa;passengerNumber: int&#xa;balance: double&#xa;activities: List&lt;Activity&gt;" style="text;align=left;verticalAlign=top;spacingLeft=4;spacingRight=4;overflow=hidden;rotatable=0;points=[[0,0.5],[1,0.5]];portConstraint=eastwest;" parent="fUW-c-WArz3DxkQW3yNd-18" vertex="1">
          <mxGeometry y="26" width="370" height="64" as="geometry" />
        </mxCell>
        <mxCell id="fUW-c-WArz3DxkQW3yNd-20" value="" style="endArrow=none;html=1;rounded=0;entryX=0.996;entryY=0.997;entryDx=0;entryDy=0;entryPerimeter=0;" parent="fUW-c-WArz3DxkQW3yNd-18" target="fUW-c-WArz3DxkQW3yNd-19" edge="1">
          <mxGeometry width="50" height="50" relative="1" as="geometry">
            <mxPoint y="90" as="sourcePoint" />
            <mxPoint x="290" y="90" as="targetPoint" />
          </mxGeometry>
        </mxCell>
        <mxCell id="fUW-c-WArz3DxkQW3yNd-21" value="Passenger(name: String, passengerNumber: int, balance: double) &#xa;addActivity(activity: Activity): void &#xa;getName(): String &#xa;getPassengerNumber(): int&#xa;getBalance(): double &#xa;deductBalance(amount: double): void &#xa;getActivities(): List&lt;Activity&gt;" style="text;align=left;verticalAlign=top;spacingLeft=4;spacingRight=4;overflow=hidden;rotatable=0;points=[[0,0.5],[1,0.5]];portConstraint=eastwest;" parent="fUW-c-WArz3DxkQW3yNd-18" vertex="1">
          <mxGeometry y="90" width="370" height="130" as="geometry" />
        </mxCell>
        <mxCell id="fUW-c-WArz3DxkQW3yNd-30" value="PremiumPassenger" style="swimlane;fontStyle=2;align=center;verticalAlign=top;childLayout=stackLayout;horizontal=1;startSize=26;horizontalStack=0;resizeParent=1;resizeLast=0;collapsible=1;marginBottom=0;rounded=0;shadow=0;strokeWidth=1;" parent="WIyWlLk6GJQsqaUBKTNV-1" vertex="1">
          <mxGeometry x="30" y="585" width="140" height="100" as="geometry">
            <mxRectangle x="650" y="290" width="160" height="26" as="alternateBounds" />
          </mxGeometry>
        </mxCell>
        <mxCell id="fUW-c-WArz3DxkQW3yNd-32" value="PremiumPassenger&#xa;(name: String,&#xa;passengerNumber: int)" style="text;align=left;verticalAlign=top;spacingLeft=4;spacingRight=4;overflow=hidden;rotatable=0;points=[[0,0.5],[1,0.5]];portConstraint=eastwest;" parent="fUW-c-WArz3DxkQW3yNd-30" vertex="1">
          <mxGeometry y="26" width="140" height="64" as="geometry" />
        </mxCell>
        <mxCell id="4wwTbx7q7mavmyi-C2w0-2" value="" style="endArrow=classic;html=1;rounded=0;entryX=1.02;entryY=0.708;entryDx=0;entryDy=0;entryPerimeter=0;" edge="1" parent="WIyWlLk6GJQsqaUBKTNV-1" target="fUW-c-WArz3DxkQW3yNd-7">
          <mxGeometry width="50" height="50" relative="1" as="geometry">
            <mxPoint x="920" y="260" as="sourcePoint" />
            <mxPoint x="800" y="390" as="targetPoint" />
          </mxGeometry>
        </mxCell>
        <mxCell id="4wwTbx7q7mavmyi-C2w0-3" value="" style="endArrow=classic;html=1;rounded=0;exitX=1.016;exitY=0.21;exitDx=0;exitDy=0;exitPerimeter=0;" edge="1" parent="WIyWlLk6GJQsqaUBKTNV-1" source="fUW-c-WArz3DxkQW3yNd-10">
          <mxGeometry width="50" height="50" relative="1" as="geometry">
            <mxPoint x="930" y="270" as="sourcePoint" />
            <mxPoint x="950" y="260" as="targetPoint" />
          </mxGeometry>
        </mxCell>
        <mxCell id="4wwTbx7q7mavmyi-C2w0-4" value="1" style="text;html=1;align=center;verticalAlign=middle;whiteSpace=wrap;rounded=0;" vertex="1" parent="WIyWlLk6GJQsqaUBKTNV-1">
          <mxGeometry x="840" y="260" width="60" height="30" as="geometry" />
        </mxCell>
        <mxCell id="4wwTbx7q7mavmyi-C2w0-6" value="1" style="text;html=1;align=center;verticalAlign=middle;whiteSpace=wrap;rounded=0;" vertex="1" parent="WIyWlLk6GJQsqaUBKTNV-1">
          <mxGeometry x="770" y="350" width="60" height="30" as="geometry" />
        </mxCell>
        <mxCell id="4wwTbx7q7mavmyi-C2w0-7" value="1" style="text;html=1;align=center;verticalAlign=middle;whiteSpace=wrap;rounded=0;" vertex="1" parent="WIyWlLk6GJQsqaUBKTNV-1">
          <mxGeometry x="780" y="440" width="60" height="30" as="geometry" />
        </mxCell>
        <mxCell id="4wwTbx7q7mavmyi-C2w0-8" value="*" style="text;html=1;align=center;verticalAlign=middle;whiteSpace=wrap;rounded=0;" vertex="1" parent="WIyWlLk6GJQsqaUBKTNV-1">
          <mxGeometry x="920" y="270" width="60" height="30" as="geometry" />
        </mxCell>
        <mxCell id="4wwTbx7q7mavmyi-C2w0-9" value="" style="endArrow=classic;html=1;rounded=0;entryX=0.002;entryY=0.799;entryDx=0;entryDy=0;entryPerimeter=0;" edge="1" parent="WIyWlLk6GJQsqaUBKTNV-1" target="fUW-c-WArz3DxkQW3yNd-7">
          <mxGeometry width="50" height="50" relative="1" as="geometry">
            <mxPoint x="410" y="260" as="sourcePoint" />
            <mxPoint x="800" y="390" as="targetPoint" />
          </mxGeometry>
        </mxCell>
        <mxCell id="4wwTbx7q7mavmyi-C2w0-10" value="1" style="text;html=1;align=center;verticalAlign=middle;whiteSpace=wrap;rounded=0;" vertex="1" parent="WIyWlLk6GJQsqaUBKTNV-1">
          <mxGeometry x="360" y="260" width="60" height="30" as="geometry" />
        </mxCell>
        <mxCell id="4wwTbx7q7mavmyi-C2w0-11" value="*" style="text;html=1;align=center;verticalAlign=middle;whiteSpace=wrap;rounded=0;" vertex="1" parent="WIyWlLk6GJQsqaUBKTNV-1">
          <mxGeometry x="450" y="400" width="60" height="30" as="geometry" />
        </mxCell>
        <mxCell id="4wwTbx7q7mavmyi-C2w0-12" value="" style="endArrow=classic;html=1;rounded=0;entryX=1.007;entryY=0.737;entryDx=0;entryDy=0;entryPerimeter=0;" edge="1" parent="WIyWlLk6GJQsqaUBKTNV-1" target="fUW-c-WArz3DxkQW3yNd-19">
          <mxGeometry width="50" height="50" relative="1" as="geometry">
            <mxPoint x="1060" y="260" as="sourcePoint" />
            <mxPoint x="800" y="390" as="targetPoint" />
          </mxGeometry>
        </mxCell>
        <mxCell id="4wwTbx7q7mavmyi-C2w0-13" value="" style="endArrow=classic;html=1;rounded=0;exitX=1.014;exitY=0.334;exitDx=0;exitDy=0;exitPerimeter=0;" edge="1" parent="WIyWlLk6GJQsqaUBKTNV-1" source="fUW-c-WArz3DxkQW3yNd-21">
          <mxGeometry width="50" height="50" relative="1" as="geometry">
            <mxPoint x="1070" y="270" as="sourcePoint" />
            <mxPoint x="1090" y="260" as="targetPoint" />
          </mxGeometry>
        </mxCell>
        <mxCell id="4wwTbx7q7mavmyi-C2w0-14" value="1" style="text;html=1;align=center;verticalAlign=middle;whiteSpace=wrap;rounded=0;" vertex="1" parent="WIyWlLk6GJQsqaUBKTNV-1">
          <mxGeometry x="830" y="760" width="60" height="30" as="geometry" />
        </mxCell>
        <mxCell id="4wwTbx7q7mavmyi-C2w0-15" value="1" style="text;html=1;align=center;verticalAlign=middle;whiteSpace=wrap;rounded=0;" vertex="1" parent="WIyWlLk6GJQsqaUBKTNV-1">
          <mxGeometry x="990" y="260" width="60" height="30" as="geometry" />
        </mxCell>
        <mxCell id="4wwTbx7q7mavmyi-C2w0-17" value="*" style="text;html=1;align=center;verticalAlign=middle;whiteSpace=wrap;rounded=0;" vertex="1" parent="WIyWlLk6GJQsqaUBKTNV-1">
          <mxGeometry x="820" y="630" width="60" height="30" as="geometry" />
        </mxCell>
        <mxCell id="4wwTbx7q7mavmyi-C2w0-18" value="*" style="text;html=1;align=center;verticalAlign=middle;whiteSpace=wrap;rounded=0;" vertex="1" parent="WIyWlLk6GJQsqaUBKTNV-1">
          <mxGeometry x="1080" y="270" width="60" height="30" as="geometry" />
        </mxCell>
        <mxCell id="4wwTbx7q7mavmyi-C2w0-19" value="" style="endArrow=classic;html=1;rounded=0;exitX=0.5;exitY=1;exitDx=0;exitDy=0;entryX=0.5;entryY=0;entryDx=0;entryDy=0;" edge="1" parent="WIyWlLk6GJQsqaUBKTNV-1" source="fUW-c-WArz3DxkQW3yNd-6" target="fUW-c-WArz3DxkQW3yNd-18">
          <mxGeometry width="50" height="50" relative="1" as="geometry">
            <mxPoint x="750" y="470" as="sourcePoint" />
            <mxPoint x="800" y="420" as="targetPoint" />
          </mxGeometry>
        </mxCell>
        <mxCell id="4wwTbx7q7mavmyi-C2w0-20" value="*" style="text;html=1;align=center;verticalAlign=middle;whiteSpace=wrap;rounded=0;" vertex="1" parent="WIyWlLk6GJQsqaUBKTNV-1">
          <mxGeometry x="620" y="610" width="60" height="30" as="geometry" />
        </mxCell>
        <mxCell id="4wwTbx7q7mavmyi-C2w0-21" value="1" style="text;html=1;align=center;verticalAlign=middle;whiteSpace=wrap;rounded=0;" vertex="1" parent="WIyWlLk6GJQsqaUBKTNV-1">
          <mxGeometry x="620" y="555" width="60" height="30" as="geometry" />
        </mxCell>
        <mxCell id="4wwTbx7q7mavmyi-C2w0-22" value="" style="endArrow=classic;html=1;rounded=0;entryX=-0.007;entryY=0.031;entryDx=0;entryDy=0;entryPerimeter=0;exitX=0.1;exitY=1.028;exitDx=0;exitDy=0;exitPerimeter=0;" edge="1" parent="WIyWlLk6GJQsqaUBKTNV-1" source="fUW-c-WArz3DxkQW3yNd-4" target="fUW-c-WArz3DxkQW3yNd-21">
          <mxGeometry width="50" height="50" relative="1" as="geometry">
            <mxPoint x="370" y="260" as="sourcePoint" />
            <mxPoint x="140" y="713" as="targetPoint" />
          </mxGeometry>
        </mxCell>
        <mxCell id="4wwTbx7q7mavmyi-C2w0-23" value="1" style="text;html=1;align=center;verticalAlign=middle;whiteSpace=wrap;rounded=0;" vertex="1" parent="WIyWlLk6GJQsqaUBKTNV-1">
          <mxGeometry x="300" y="260" width="60" height="30" as="geometry" />
        </mxCell>
        <mxCell id="4wwTbx7q7mavmyi-C2w0-24" value="*" style="text;html=1;align=center;verticalAlign=middle;whiteSpace=wrap;rounded=0;" vertex="1" parent="WIyWlLk6GJQsqaUBKTNV-1">
          <mxGeometry x="410" y="710" width="60" height="30" as="geometry" />
        </mxCell>
        <mxCell id="4wwTbx7q7mavmyi-C2w0-25" value="GoldPassenger" style="swimlane;fontStyle=2;align=center;verticalAlign=top;childLayout=stackLayout;horizontal=1;startSize=26;horizontalStack=0;resizeParent=1;resizeLast=0;collapsible=1;marginBottom=0;rounded=0;shadow=0;strokeWidth=1;" vertex="1" parent="WIyWlLk6GJQsqaUBKTNV-1">
          <mxGeometry x="30" y="430" width="140" height="130" as="geometry">
            <mxRectangle x="650" y="290" width="160" height="26" as="alternateBounds" />
          </mxGeometry>
        </mxCell>
        <mxCell id="4wwTbx7q7mavmyi-C2w0-26" value="GoldPassenger&#xa;(name: String,&#xa;passengerNumber: int,&#xa; balance: double)&#xa;deductBalance&#xa;(amount: double) : void&#xa;" style="text;align=left;verticalAlign=top;spacingLeft=4;spacingRight=4;overflow=hidden;rotatable=0;points=[[0,0.5],[1,0.5]];portConstraint=eastwest;" vertex="1" parent="4wwTbx7q7mavmyi-C2w0-25">
          <mxGeometry y="26" width="140" height="104" as="geometry" />
        </mxCell>
        <mxCell id="4wwTbx7q7mavmyi-C2w0-27" value="StandardPassenger" style="swimlane;fontStyle=2;align=center;verticalAlign=top;childLayout=stackLayout;horizontal=1;startSize=26;horizontalStack=0;resizeParent=1;resizeLast=0;collapsible=1;marginBottom=0;rounded=0;shadow=0;strokeWidth=1;" vertex="1" parent="WIyWlLk6GJQsqaUBKTNV-1">
          <mxGeometry x="30" y="290" width="140" height="100" as="geometry">
            <mxRectangle x="650" y="290" width="160" height="26" as="alternateBounds" />
          </mxGeometry>
        </mxCell>
        <mxCell id="4wwTbx7q7mavmyi-C2w0-28" value="StandardPassenger&#xa;(name: String, &#xa;passengerNumber: int,&#xa; balance: double)&#xa;" style="text;align=left;verticalAlign=top;spacingLeft=4;spacingRight=4;overflow=hidden;rotatable=0;points=[[0,0.5],[1,0.5]];portConstraint=eastwest;" vertex="1" parent="4wwTbx7q7mavmyi-C2w0-27">
          <mxGeometry y="26" width="140" height="74" as="geometry" />
        </mxCell>
        <mxCell id="4wwTbx7q7mavmyi-C2w0-29" value="PassengerType" style="swimlane;fontStyle=2;align=center;verticalAlign=top;childLayout=stackLayout;horizontal=1;startSize=26;horizontalStack=0;resizeParent=1;resizeLast=0;collapsible=1;marginBottom=0;rounded=0;shadow=0;strokeWidth=1;" vertex="1" parent="WIyWlLk6GJQsqaUBKTNV-1">
          <mxGeometry x="30" y="150" width="140" height="80" as="geometry">
            <mxRectangle x="650" y="290" width="160" height="26" as="alternateBounds" />
          </mxGeometry>
        </mxCell>
        <mxCell id="4wwTbx7q7mavmyi-C2w0-30" value="StandardPassenger&#xa;GoldPassenger&#xa;PremiumPassenger" style="text;align=left;verticalAlign=top;spacingLeft=4;spacingRight=4;overflow=hidden;rotatable=0;points=[[0,0.5],[1,0.5]];portConstraint=eastwest;" vertex="1" parent="4wwTbx7q7mavmyi-C2w0-29">
          <mxGeometry y="26" width="140" height="54" as="geometry" />
        </mxCell>
      </root>
    </mxGraphModel>
  </diagram>
</mxfile>
